<svg width="90" height="89" viewBox="0 0 90 89" fill="none" xmlns="http://www.w3.org/2000/svg">
<g clip-path="url(#clip0_2836_202)">
<path d="M45 44.3138C57.4265 44.3138 67.5 34.3938 67.5 22.1569C67.5 9.91997 57.4265 0 45 0C32.5735 0 22.5 9.91997 22.5 22.1569C22.5 34.3938 32.5735 44.3138 45 44.3138Z" fill="white"/>
<path d="M62.8125 22.1571C62.8125 26.3781 61.064 30.5492 57.8029 33.7603C54.5739 36.9403 50.0489 38.9593 45 38.9593C39.9511 38.9593 35.4264 36.9403 32.1971 33.7603C28.936 30.5492 27.1875 26.3781 27.1875 22.1571C27.1875 17.9358 28.936 13.7649 32.1971 10.5536C35.4264 7.3736 39.9511 5.35474 45 5.35474C50.0489 5.35474 54.5739 7.3736 57.8029 10.5536C61.064 13.7649 62.8125 17.9358 62.8125 22.1571Z" stroke="#A536CC" stroke-width="1.5"/>
<g filter="url(#filter0_d_2836_202)">
<path d="M46.0703 15.0911H42.6704V11.8661H46.0703V15.0911ZM46.0703 31.5363H42.6704V28.3115H46.0703V31.5363ZM45.4955 26.342V23.5107C45.4955 23.2972 45.4454 23.1497 45.3455 23.0676C45.2453 22.9692 45.0704 22.92 44.8205 22.92H42.6203C41.5205 22.92 40.7539 22.6736 40.3205 22.1812C39.8871 21.6726 39.6704 20.9996 39.6704 20.1626V16.6175C39.6704 15.7641 39.9122 15.0993 40.3955 14.6234C40.8787 14.131 41.6871 13.8848 42.8204 13.8848H45.8705C47.0038 13.8848 47.8122 14.131 48.2954 14.6234C48.7789 15.0993 49.0205 15.7641 49.0205 16.6175V18.6362H45.4454V17.0853C45.4454 16.8555 45.3953 16.6996 45.2954 16.6175C45.1955 16.519 45.0203 16.4698 44.7704 16.4698H43.9205C43.6703 16.4698 43.4954 16.519 43.3955 16.6175C43.2953 16.6996 43.2455 16.8555 43.2455 17.0853V19.8426C43.2455 20.0559 43.2953 20.2119 43.3955 20.3103C43.4954 20.3924 43.6703 20.4334 43.9205 20.4334H46.0703C47.1872 20.4334 47.9622 20.6714 48.3953 21.1474C48.8453 21.6233 49.0703 22.2881 49.0703 23.1416V26.8095C49.0703 27.6632 48.8287 28.3359 48.3455 28.8284C47.8622 29.3042 47.0539 29.5422 45.9203 29.5422H42.8954C41.7621 29.5422 40.9454 29.3042 40.4453 28.8284C39.9621 28.3359 39.7205 27.6632 39.7205 26.8095V24.7909H43.2953V26.342C43.2953 26.5552 43.3454 26.7113 43.4453 26.8095C43.5455 26.9082 43.7204 26.9575 43.9703 26.9575H44.8205C45.0704 26.9575 45.2453 26.9082 45.3455 26.8095C45.4454 26.7113 45.4955 26.5552 45.4955 26.342Z" fill="#A536CC"/>
</g>
<path d="M22.5 66.4707C34.9265 66.4707 45 56.5505 45 44.3138C45 32.0768 34.9265 22.1569 22.5 22.1569C10.0736 22.1569 0 32.0768 0 44.3138C0 56.5505 10.0736 66.4707 22.5 66.4707Z" fill="white"/>
<path d="M40.3125 44.314C40.3125 48.5351 38.564 52.7062 35.3029 55.9173C32.0736 59.0972 27.5489 61.1163 22.5 61.1163C17.451 61.1163 12.9262 59.0972 9.69703 55.9173C6.43603 52.7062 4.6875 48.5351 4.6875 44.314C4.6875 40.0926 6.43603 35.9219 9.69703 32.7104C12.9262 29.5304 17.451 27.5116 22.5 27.5116C27.5489 27.5116 32.0736 29.5304 35.3029 32.7104C38.564 35.9219 40.3125 40.0926 40.3125 44.314Z" stroke="#A536CC" stroke-width="1.5"/>
<g filter="url(#filter1_d_2836_202)">
<path d="M28.2787 45.5443L22.3247 34.4661V48.6218L28.2787 45.5443Z" fill="#A536CC"/>
<path d="M22.3245 34.4661L16.3706 45.5443L22.3247 48.6218L22.3245 34.4661Z" fill="#581C7B"/>
<path d="M28.5749 46.1603L22.3252 54.7768V49.1537L28.5749 46.1603Z" fill="#A536CC"/>
<path d="M22.325 54.7768L16.25 46.0762L22.325 49.1537V54.7768Z" fill="#581C7B"/>
</g>
<path d="M67.5 66.4707C79.9265 66.4707 90 56.5505 90 44.3138C90 32.0768 79.9265 22.1569 67.5 22.1569C55.0735 22.1569 45 32.0768 45 44.3138C45 56.5505 55.0735 66.4707 67.5 66.4707Z" fill="white"/>
<path d="M85.3125 44.314C85.3125 48.5351 83.564 52.7062 80.3029 55.9173C77.0739 59.0972 72.5489 61.1163 67.5 61.1163C62.4511 61.1163 57.9261 59.0972 54.6971 55.9173C51.436 52.7062 49.6875 48.5351 49.6875 44.314C49.6875 40.0926 51.436 35.9219 54.6971 32.7104C57.9261 29.5304 62.4511 27.5116 67.5 27.5116C72.5489 27.5116 77.0739 29.5304 80.3029 32.7104C83.564 35.9219 85.3125 40.0926 85.3125 44.314Z" stroke="#A536CC" stroke-width="1.5"/>
<g filter="url(#filter2_d_2836_202)">
<path d="M68.75 37.4369H71.6051H73.9941H75.6836C77.3111 37.4369 78.5318 37.7813 79.3457 38.4705C80.2084 39.2079 80.6395 40.1455 80.6395 41.2835C80.6395 42.4534 80.2003 43.3671 79.3211 44.0242C80.7699 44.7615 81.4941 45.8672 81.4941 47.3421C81.4941 47.9028 81.4045 48.4078 81.2255 48.8566C81.0628 49.3053 80.8595 49.674 80.6152 49.9625C80.3874 50.235 80.078 50.4756 79.6874 50.6838C79.2968 50.892 78.9386 51.0444 78.6133 51.1406C78.304 51.2368 77.9134 51.3088 77.4413 51.3569C76.9694 51.405 76.6114 51.4372 76.3672 51.4531C76.1393 51.4531 75.8383 51.4531 75.4639 51.4531H73.9941H71.6051H68.75V49.4818H70.7276V39.4082H68.75V37.4369ZM75.6348 39.4082H72.8515V43.1827H75.5128C75.8707 43.1827 76.172 43.1665 76.416 43.1348C76.6601 43.1027 76.9613 43.0305 77.3195 42.9183C77.6936 42.8061 77.9784 42.6058 78.1739 42.3173C78.3691 42.0127 78.4668 41.628 78.4668 41.1633C78.4668 39.9932 77.5228 39.4082 75.6348 39.4082ZM75.3174 45.154H72.8515V49.4818H75.4151C76.0662 49.4818 76.595 49.4656 77.002 49.4337C77.4089 49.3856 77.7995 49.2974 78.1739 49.1691C78.5645 49.0409 78.8493 48.8406 79.0284 48.5681C79.2074 48.2794 79.2968 47.9111 79.2968 47.4622C79.2968 45.9236 77.9703 45.154 75.3174 45.154Z" fill="#A536CC"/>
<path d="M71.605 35.451V37.4369H73.994V35.451H71.605Z" fill="#A536CC"/>
<path d="M71.605 51.4531V53.2995H73.994V51.4531H71.605Z" fill="#A536CC"/>
<path d="M67.7441 37.4369H64.889H62.5H60.8105C59.183 37.4369 57.9623 37.7813 57.1484 38.4705C56.2857 39.2079 55.8546 40.1455 55.8546 41.2835C55.8546 42.4534 56.294 43.3671 57.173 44.0242C55.7243 44.7615 55 45.8672 55 47.3421C55 47.9028 55.0896 48.4078 55.2686 48.8566C55.4313 49.3053 55.6347 49.674 55.8789 49.9625C56.1068 50.235 56.4161 50.4756 56.8067 50.6838C57.1973 50.892 57.5553 51.0444 57.8808 51.1406C58.1901 51.2368 58.5807 51.3088 59.0528 51.3569C59.5247 51.405 59.8827 51.4372 60.127 51.4531C60.3548 51.4531 60.6558 51.4531 61.0302 51.4531H62.5H64.889H67.7441V49.4818H65.7666V39.4082H67.7441V37.4369ZM60.8593 39.4082H63.6426V43.1827H60.9815C60.6234 43.1827 60.3222 43.1665 60.0781 43.1348C59.834 43.1027 59.5328 43.0305 59.1747 42.9183C58.8005 42.8061 58.5157 42.6058 58.3203 42.3173C58.1251 42.0127 58.0274 41.628 58.0274 41.1633C58.0274 39.9932 58.9713 39.4082 60.8593 39.4082ZM61.1768 45.154H63.6426V49.4818H61.0791C60.428 49.4818 59.8991 49.4656 59.4923 49.4337C59.0853 49.3856 58.6947 49.2974 58.3203 49.1691C57.9297 49.0409 57.6449 48.8406 57.4659 48.5681C57.2867 48.2794 57.1973 47.9111 57.1973 47.4622C57.1973 45.9236 58.5238 45.154 61.1768 45.154Z" fill="#A536CC"/>
<path d="M64.8891 35.451V37.4369H62.5V35.451H64.8891Z" fill="#A536CC"/>
<path d="M64.8891 51.4531V53.2995H62.5V51.4531H64.8891Z" fill="#A536CC"/>
</g>
<g filter="url(#filter3_d_2836_202)">
<path d="M7.40766 57.1201V66.3928C7.40766 66.6146 7.44463 66.7732 7.5186 66.8682C7.59256 66.9475 7.72199 66.9871 7.90689 66.9871H8.38762V69.3173H7.09333C6.25511 69.3173 5.65112 69.0874 5.28131 68.6277C4.92384 68.1521 4.74512 67.5103 4.74512 66.7019V56.8347C4.74512 56.0106 4.92384 55.3685 5.28131 54.9088C5.65112 54.4334 6.25511 54.1957 7.09333 54.1957H8.4431V56.5256H7.90689C7.72199 56.5256 7.59256 56.5731 7.5186 56.6683C7.44463 56.7476 7.40766 56.8982 7.40766 57.1201ZM9.14571 59.4976V57.1201C9.14571 56.8982 9.10874 56.7476 9.03477 56.6683C8.97313 56.5731 8.84987 56.5256 8.66498 56.5256H8.12877V54.1957H9.46004C10.2983 54.1957 10.8961 54.4334 11.2536 54.9088C11.6234 55.3685 11.8083 56.0106 11.8083 56.8347V59.4976H9.14571ZM9.14571 66.3928V64.0865H11.8083V66.7019C11.8083 67.5103 11.6234 68.1521 11.2536 68.6277C10.8961 69.0874 10.2983 69.3173 9.46004 69.3173H8.12877V66.9871H8.66498C8.84987 66.9871 8.97313 66.9475 9.03477 66.8682C9.10874 66.7732 9.14571 66.6146 9.14571 66.3928ZM24.1816 60.6864V57.2865C24.1816 57.0645 24.1447 56.9139 24.0708 56.8347C24.0091 56.7397 23.8859 56.692 23.701 56.692H20.3913V54.1957H24.496C25.3342 54.1957 25.9322 54.4334 26.2895 54.9088C26.6471 55.3685 26.8257 56.0106 26.8257 56.8347V61.0432C26.8257 61.8516 26.6471 62.4934 26.2895 62.969C25.9322 63.4287 25.3342 63.6586 24.496 63.6586H20.613V61.2571H23.701C23.8859 61.2571 24.0091 61.2174 24.0708 61.1382C24.1447 61.0432 24.1816 60.8926 24.1816 60.6864ZM19.6332 54.1957H22.2772V69.3173H19.6332V54.1957ZM22.2957 62.327H24.9213L27.4174 69.3173H24.5885L22.2957 62.327ZM39.4496 64.9899H37.1199L33.9766 54.1957H36.6947L38.2664 61.3046L39.7271 54.1957H42.4265L39.4496 64.9899ZM36.9535 63.1593H39.5976V69.3173H36.9535V63.1593ZM54.2783 60.948V57.2865C54.2783 57.0645 54.2414 56.9139 54.1674 56.8347C54.1058 56.7397 53.9826 56.692 53.7977 56.692H50.488V54.1957H54.5927C55.4309 54.1957 56.0287 54.4334 56.3862 54.9088C56.7438 55.3685 56.9224 56.0106 56.9224 56.8347V61.3998C56.9224 62.2239 56.7438 62.8738 56.3862 63.3495C56.0287 63.809 55.4309 64.0388 54.5927 64.0388H50.7097V61.5425H53.7977C53.9826 61.5425 54.1058 61.4948 54.1674 61.3998C54.2414 61.3046 54.2783 61.154 54.2783 60.948ZM49.7299 54.1957H52.3739V69.3173H49.7299V54.1957ZM66.0574 55.1943H68.7014V69.3173H66.0574V55.1943ZM70.8649 54.1957V56.692H63.9126V54.1957H70.8649ZM82.6936 62.0893V57.2865C82.6936 57.0645 82.6567 56.9139 82.5827 56.8347C82.5211 56.7397 82.3979 56.692 82.2128 56.692H81.5842V54.1957H83.008C83.8462 54.1957 84.4439 54.4334 84.8015 54.9088C85.1589 55.3685 85.3376 56.0106 85.3376 56.8347V62.0893H82.6936ZM82.6936 66.2262V61.5186H85.3376V66.678C85.3376 67.5022 85.1589 68.1521 84.8015 68.6277C84.4439 69.0874 83.8462 69.3173 83.008 69.3173H81.5473V66.8207H82.2128C82.3979 66.8207 82.5211 66.773 82.5827 66.678C82.6567 66.583 82.6936 66.4324 82.6936 66.2262ZM80.8261 57.2865V62.0893H78.182V56.8347C78.182 56.0106 78.3608 55.3685 78.7182 54.9088C79.0881 54.4334 79.692 54.1957 80.5303 54.1957H81.9355V56.692H81.3253C81.1405 56.692 81.011 56.7397 80.937 56.8347C80.8632 56.9139 80.8261 57.0645 80.8261 57.2865ZM80.8261 61.4473V66.2262C80.8261 66.4324 80.8632 66.583 80.937 66.678C81.011 66.773 81.1405 66.8207 81.3253 66.8207H81.917V69.3173H80.5303C79.692 69.3173 79.0881 69.0874 78.7182 68.6277C78.3608 68.1521 78.182 67.5022 78.182 66.678V61.4473H80.8261ZM14.986 76.1409V85.4136C14.986 85.6355 15.023 85.794 15.097 85.889C15.1709 85.9683 15.3004 86.0079 15.4853 86.0079H15.966V88.3381H14.6717C13.8335 88.3381 13.2295 88.1082 12.8597 87.6485C12.5022 87.1731 12.3235 86.5311 12.3235 85.7227V75.8557C12.3235 75.0313 12.5022 74.3893 12.8597 73.9298C13.2295 73.4542 13.8335 73.2165 14.6717 73.2165H16.0215V75.5466H15.4853C15.3004 75.5466 15.1709 75.5941 15.097 75.6891C15.023 75.7684 14.986 75.919 14.986 76.1409ZM16.7241 78.5186V76.1409C16.7241 75.919 16.6871 75.7684 16.6131 75.6891C16.5515 75.5941 16.4283 75.5466 16.2433 75.5466H15.7071V73.2165H17.0384C17.8766 73.2165 18.4745 73.4542 18.8319 73.9298C19.2017 74.3893 19.3866 75.0313 19.3866 75.8557V78.5186H16.7241ZM16.7241 85.4136V83.1073H19.3866V85.7227C19.3866 86.5311 19.2017 87.1731 18.8319 87.6485C18.4745 88.1082 17.8766 88.3381 17.0384 88.3381H15.7071V86.0079H16.2433C16.4283 86.0079 16.5515 85.9683 16.6131 85.889C16.6871 85.794 16.7241 85.6355 16.7241 85.4136ZM31.7601 79.7074V76.3073C31.7601 76.0855 31.723 75.9349 31.649 75.8557C31.5874 75.7605 31.4641 75.713 31.2793 75.713H27.9695V73.2165H32.0743C32.9124 73.2165 33.5104 73.4542 33.8678 73.9298C34.2253 74.3893 34.4041 75.0313 34.4041 75.8557V80.064C34.4041 80.8724 34.2253 81.5144 33.8678 81.9898C33.5104 82.4495 32.9124 82.6794 32.0743 82.6794H28.1915V80.2781H31.2793C31.4641 80.2781 31.5874 80.2382 31.649 80.159C31.723 80.064 31.7601 79.9134 31.7601 79.7074ZM27.2114 73.2165H29.8555V88.3381H27.2114V73.2165ZM29.8739 81.3478H32.4995L34.9956 88.3381H32.1667L29.8739 81.3478ZM48.5627 83.1312V85.6038H43.441V83.1312H48.5627ZM50.3933 88.3381H47.7308L45.9742 76.7352L44.236 88.3381H41.6106L44.2916 73.2165H47.6568L50.3933 88.3381ZM64.1755 73.2165V75.713H57.4638V73.2165H64.1755ZM61.439 75.713H64.1755L59.9783 85.8415H57.2418L61.439 75.713ZM64.0646 85.8415V88.3381H57.2418V85.8415H64.0646ZM71.7606 73.2165H74.4231V88.3381H71.7606V73.2165ZM77.5109 79.3983V81.8948H72.9809V79.3983H77.5109ZM78.0472 73.2165V75.713H72.8145V73.2165H78.0472ZM78.195 85.8415V88.3381H72.8145V85.8415H78.195Z" fill="#A536CC"/>
</g>
</g>
<defs>
<filter id="filter0_d_2836_202" x="39.6704" y="11.2661" width="10.9999" height="20.8703" filterUnits="userSpaceOnUse" color-interpolation-filters="sRGB">
<feFlood flood-opacity="0" result="BackgroundImageFix"/>
<feColorMatrix in="SourceAlpha" type="matrix" values="0 0 0 0 0 0 0 0 0 0 0 0 0 0 0 0 0 0 127 0" result="hardAlpha"/>
<feOffset dx="1"/>
<feGaussianBlur stdDeviation="0.3"/>
<feComposite in2="hardAlpha" operator="out"/>
<feColorMatrix type="matrix" values="0 0 0 0 0.0166232 0 0 0 0 0.0166232 0 0 0 0 0.0166232 0 0 0 0.52 0"/>
<feBlend mode="normal" in2="BackgroundImageFix" result="effect1_dropShadow_2836_202"/>
<feBlend mode="normal" in="SourceGraphic" in2="effect1_dropShadow_2836_202" result="shape"/>
</filter>
<filter id="filter1_d_2836_202" x="16.25" y="34.0661" width="13.7247" height="21.1107" filterUnits="userSpaceOnUse" color-interpolation-filters="sRGB">
<feFlood flood-opacity="0" result="BackgroundImageFix"/>
<feColorMatrix in="SourceAlpha" type="matrix" values="0 0 0 0 0 0 0 0 0 0 0 0 0 0 0 0 0 0 127 0" result="hardAlpha"/>
<feOffset dx="1"/>
<feGaussianBlur stdDeviation="0.2"/>
<feComposite in2="hardAlpha" operator="out"/>
<feColorMatrix type="matrix" values="0 0 0 0 0 0 0 0 0 0 0 0 0 0 0 0 0 0 0.25 0"/>
<feBlend mode="normal" in2="BackgroundImageFix" result="effect1_dropShadow_2836_202"/>
<feBlend mode="normal" in="SourceGraphic" in2="effect1_dropShadow_2836_202" result="shape"/>
</filter>
<filter id="filter2_d_2836_202" x="55" y="35.151" width="27.7941" height="18.4485" filterUnits="userSpaceOnUse" color-interpolation-filters="sRGB">
<feFlood flood-opacity="0" result="BackgroundImageFix"/>
<feColorMatrix in="SourceAlpha" type="matrix" values="0 0 0 0 0 0 0 0 0 0 0 0 0 0 0 0 0 0 127 0" result="hardAlpha"/>
<feOffset dx="1"/>
<feGaussianBlur stdDeviation="0.15"/>
<feComposite in2="hardAlpha" operator="out"/>
<feColorMatrix type="matrix" values="0 0 0 0 0 0 0 0 0 0 0 0 0 0 0 0 0 0 0.25 0"/>
<feBlend mode="normal" in2="BackgroundImageFix" result="effect1_dropShadow_2836_202"/>
<feBlend mode="normal" in="SourceGraphic" in2="effect1_dropShadow_2836_202" result="shape"/>
</filter>
<filter id="filter3_d_2836_202" x="3.74512" y="54.1957" width="81.5923" height="34.1423" filterUnits="userSpaceOnUse" color-interpolation-filters="sRGB">
<feFlood flood-opacity="0" result="BackgroundImageFix"/>
<feColorMatrix in="SourceAlpha" type="matrix" values="0 0 0 0 0 0 0 0 0 0 0 0 0 0 0 0 0 0 127 0" result="hardAlpha"/>
<feOffset dx="-1"/>
<feComposite in2="hardAlpha" operator="out"/>
<feColorMatrix type="matrix" values="0 0 0 0 0.611765 0 0 0 0 0.0784314 0 0 0 0 0.501961 0 0 0 1 0"/>
<feBlend mode="normal" in2="BackgroundImageFix" result="effect1_dropShadow_2836_202"/>
<feBlend mode="normal" in="SourceGraphic" in2="effect1_dropShadow_2836_202" result="shape"/>
</filter>
<clipPath id="clip0_2836_202">
<rect width="90" height="89" fill="white"/>
</clipPath>
</defs>
</svg>
